<mxfile host="app.diagrams.net" modified="2022-11-28T02:44:16.128Z" agent="5.0 (Windows NT 10.0; Win64; x64) AppleWebKit/537.36 (KHTML, like Gecko) Chrome/107.0.0.0 Safari/537.36" etag="itGRO4yOywRhM37XDHOL" version="20.6.0" type="github">
  <diagram id="ezt5YXl6MBS59BxsCnl_" name="第 1 页">
    <mxGraphModel dx="1022" dy="555" grid="1" gridSize="10" guides="1" tooltips="1" connect="1" arrows="1" fold="1" page="1" pageScale="1" pageWidth="827" pageHeight="1169" math="0" shadow="0">
      <root>
        <mxCell id="0" />
        <mxCell id="1" parent="0" />
        <mxCell id="RtNMip4K_nn4baayEAyn-1" value="Server" style="rounded=1;whiteSpace=wrap;html=1;" parent="1" vertex="1">
          <mxGeometry x="360" y="270" width="180" height="60" as="geometry" />
        </mxCell>
        <mxCell id="RtNMip4K_nn4baayEAyn-2" value="Client" style="rounded=1;whiteSpace=wrap;html=1;" parent="1" vertex="1">
          <mxGeometry x="360" y="460" width="200" height="60" as="geometry" />
        </mxCell>
        <mxCell id="RtNMip4K_nn4baayEAyn-3" value="Client" style="rounded=1;whiteSpace=wrap;html=1;" parent="1" vertex="1">
          <mxGeometry x="160" y="270" width="80" height="60" as="geometry" />
        </mxCell>
        <mxCell id="RtNMip4K_nn4baayEAyn-4" value="Client" style="rounded=1;whiteSpace=wrap;html=1;" parent="1" vertex="1">
          <mxGeometry x="660" y="270" width="80" height="60" as="geometry" />
        </mxCell>
        <mxCell id="RtNMip4K_nn4baayEAyn-9" value="" style="endArrow=classic;html=1;rounded=0;entryX=0.285;entryY=0.997;entryDx=0;entryDy=0;exitX=0.25;exitY=0;exitDx=0;exitDy=0;entryPerimeter=0;" parent="1" source="RtNMip4K_nn4baayEAyn-2" target="RtNMip4K_nn4baayEAyn-1" edge="1">
          <mxGeometry relative="1" as="geometry">
            <mxPoint x="330" y="430" as="sourcePoint" />
            <mxPoint x="490" y="430" as="targetPoint" />
          </mxGeometry>
        </mxCell>
        <mxCell id="RtNMip4K_nn4baayEAyn-10" value="Call Server&lt;br&gt;Try Active Ability" style="edgeLabel;resizable=0;html=1;align=center;verticalAlign=middle;" parent="RtNMip4K_nn4baayEAyn-9" connectable="0" vertex="1">
          <mxGeometry relative="1" as="geometry" />
        </mxCell>
        <mxCell id="RtNMip4K_nn4baayEAyn-13" value="" style="endArrow=classic;html=1;rounded=0;entryX=0.679;entryY=-0.037;entryDx=0;entryDy=0;exitX=0.75;exitY=1;exitDx=0;exitDy=0;entryPerimeter=0;" parent="1" source="RtNMip4K_nn4baayEAyn-1" target="RtNMip4K_nn4baayEAyn-2" edge="1">
          <mxGeometry relative="1" as="geometry">
            <mxPoint x="423.5" y="470" as="sourcePoint" />
            <mxPoint x="430" y="340" as="targetPoint" />
          </mxGeometry>
        </mxCell>
        <mxCell id="RtNMip4K_nn4baayEAyn-14" value="Notify&amp;nbsp;&lt;br&gt;GameEffect&lt;br&gt;GameCue&lt;br&gt;GameAttributeSet" style="edgeLabel;resizable=0;html=1;align=center;verticalAlign=middle;" parent="RtNMip4K_nn4baayEAyn-13" connectable="0" vertex="1">
          <mxGeometry relative="1" as="geometry" />
        </mxCell>
        <mxCell id="RtNMip4K_nn4baayEAyn-17" value="" style="endArrow=classic;html=1;rounded=0;entryX=1;entryY=0.5;entryDx=0;entryDy=0;exitX=0;exitY=0.5;exitDx=0;exitDy=0;" parent="1" source="RtNMip4K_nn4baayEAyn-1" target="RtNMip4K_nn4baayEAyn-3" edge="1">
          <mxGeometry relative="1" as="geometry">
            <mxPoint x="505" y="340" as="sourcePoint" />
            <mxPoint x="505.79999999999995" y="467.7800000000001" as="targetPoint" />
          </mxGeometry>
        </mxCell>
        <mxCell id="RtNMip4K_nn4baayEAyn-18" value="Notify&amp;nbsp;&lt;br&gt;GameEffect&lt;br&gt;GameCue&lt;br&gt;GameAttributeSet" style="edgeLabel;resizable=0;html=1;align=center;verticalAlign=middle;" parent="RtNMip4K_nn4baayEAyn-17" connectable="0" vertex="1">
          <mxGeometry relative="1" as="geometry" />
        </mxCell>
        <mxCell id="RtNMip4K_nn4baayEAyn-19" value="Source" style="edgeLabel;resizable=0;html=1;align=left;verticalAlign=bottom;" parent="RtNMip4K_nn4baayEAyn-17" connectable="0" vertex="1">
          <mxGeometry x="-1" relative="1" as="geometry">
            <mxPoint x="-20" y="80" as="offset" />
          </mxGeometry>
        </mxCell>
        <mxCell id="RtNMip4K_nn4baayEAyn-21" value="" style="endArrow=classic;html=1;rounded=0;entryX=0;entryY=0.5;entryDx=0;entryDy=0;exitX=1;exitY=0.5;exitDx=0;exitDy=0;" parent="1" source="RtNMip4K_nn4baayEAyn-1" target="RtNMip4K_nn4baayEAyn-4" edge="1">
          <mxGeometry relative="1" as="geometry">
            <mxPoint x="370" y="310" as="sourcePoint" />
            <mxPoint x="260" y="310" as="targetPoint" />
          </mxGeometry>
        </mxCell>
        <mxCell id="RtNMip4K_nn4baayEAyn-22" value="Notify&amp;nbsp;&lt;br&gt;GameEffect&lt;br&gt;GameCue&lt;br&gt;GameAttributeSet" style="edgeLabel;resizable=0;html=1;align=center;verticalAlign=middle;" parent="RtNMip4K_nn4baayEAyn-21" connectable="0" vertex="1">
          <mxGeometry relative="1" as="geometry" />
        </mxCell>
        <mxCell id="RtNMip4K_nn4baayEAyn-23" value="Source" style="edgeLabel;resizable=0;html=1;align=left;verticalAlign=bottom;" parent="RtNMip4K_nn4baayEAyn-21" connectable="0" vertex="1">
          <mxGeometry x="-1" relative="1" as="geometry">
            <mxPoint x="-20" y="80" as="offset" />
          </mxGeometry>
        </mxCell>
      </root>
    </mxGraphModel>
  </diagram>
</mxfile>
